<?xml version="1.0" standalone="no"?>
<!DOCTYPE svg PUBLIC "-//W3C//DTD SVG 20010904//EN"
 "http://www.w3.org/TR/2001/REC-SVG-20010904/DTD/svg10.dtd">
<svg version="1.0" xmlns="http://www.w3.org/2000/svg"
 width="1047.000000pt" height="472.000000pt" viewBox="0 0 1047.000000 472.000000"
 preserveAspectRatio="xMidYMid meet">

<g transform="translate(0.000000,472.000000) scale(0.100000,-0.100000)"
fill="#000000" stroke="none">
<path d="M5740 4378 c0 -4 -17 -10 -37 -14 -95 -17 -211 -111 -321 -257 -102
-137 -127 -177 -213 -342 -116 -224 -188 -387 -255 -585 -14 -41 -36 -104 -49
-140 -49 -141 -103 -356 -134 -540 -42 -239 -82 -352 -161 -455 -23 -30 -45
-55 -49 -55 -3 0 -18 -11 -32 -24 -40 -37 -125 -77 -177 -82 -42 -5 -50 -2
-78 24 -18 18 -36 50 -44 77 -12 41 -11 57 4 118 15 66 65 169 87 183 13 8 94
170 123 247 13 35 30 105 37 155 23 160 -16 250 -124 287 -52 17 -55 17 -113
-1 -47 -14 -73 -32 -132 -88 -97 -93 -160 -197 -224 -371 -32 -87 -68 -214
-68 -238 0 -38 -52 -264 -70 -304 -17 -37 -30 -48 -98 -82 -128 -65 -204 -64
-239 1 -15 28 -17 58 -17 188 0 149 2 158 32 236 17 45 56 132 86 193 95 189
116 250 116 340 l0 79 -46 51 c-71 79 -167 92 -254 35 -139 -92 -309 -466
-380 -833 -37 -190 -14 -378 58 -478 29 -40 112 -116 147 -134 92 -49 240 -48
354 2 95 42 171 83 171 91 0 4 5 8 11 8 6 0 29 18 51 40 23 22 46 40 53 40 6
0 22 -18 35 -41 58 -94 68 -105 125 -136 57 -30 66 -32 162 -31 88 1 111 4
175 30 40 16 80 36 89 44 8 8 19 14 23 14 25 0 167 126 243 215 48 57 93 105
100 105 6 0 24 -33 39 -72 15 -40 40 -92 55 -115 32 -46 127 -133 146 -133 7
0 13 -4 13 -9 0 -11 152 -70 194 -76 120 -15 153 -16 231 -5 48 7 111 22 139
34 70 29 156 77 156 88 0 4 7 8 15 8 24 0 222 206 275 286 153 230 229 494
201 696 -18 128 -53 207 -126 281 -108 109 -114 112 -252 110 -62 -1 -113 0
-113 2 0 3 70 118 131 215 44 70 164 318 188 390 49 144 63 333 37 473 -23
118 -77 205 -146 235 -39 17 -150 32 -150 20z m31 -605 c25 -66 -33 -272 -119
-419 -157 -269 -361 -554 -397 -554 -11 0 -11 8 2 48 24 75 61 178 110 302
111 287 258 560 335 625 38 32 56 32 69 -2z m-73 -1106 c58 -56 72 -101 72
-239 0 -98 -4 -138 -20 -184 -11 -32 -20 -65 -20 -72 -1 -55 -172 -320 -207
-321 -7 -1 -13 -5 -13 -9 0 -18 -125 -62 -176 -62 -45 0 -56 5 -96 40 -91 79
-125 245 -108 516 7 114 11 136 31 163 50 67 197 180 254 194 11 2 73 4 137 3
113 -1 118 -2 146 -29z"/>
<path d="M1995 4359 c-119 -5 -252 -33 -313 -65 -15 -7 -33 -14 -40 -14 -42 0
-357 -185 -369 -217 -3 -7 -11 -13 -18 -13 -20 0 -113 -106 -167 -190 -30 -46
-60 -112 -79 -170 -30 -93 -31 -99 -27 -255 l3 -160 44 -89 c37 -77 59 -105
160 -208 64 -65 119 -118 122 -118 4 0 22 -14 40 -31 36 -33 100 -81 227 -166
42 -29 82 -56 87 -60 6 -5 39 -29 75 -54 93 -66 124 -93 220 -190 109 -110
122 -128 154 -221 35 -102 37 -265 5 -361 -57 -171 -165 -272 -362 -340 -88
-30 -99 -32 -242 -31 -135 0 -156 2 -210 24 -60 24 -66 26 -84 29 -5 0 -16 7
-23 14 -7 7 -30 23 -50 35 -60 37 -131 123 -157 191 -21 53 -24 78 -24 179 1
121 19 209 65 310 28 63 26 97 -7 132 -16 17 -35 30 -42 30 -7 0 -13 4 -13 9
0 15 -130 51 -186 51 -28 0 -76 -7 -105 -16 -159 -47 -231 -116 -286 -277 -24
-70 -28 -98 -28 -187 0 -116 20 -193 79 -304 28 -54 140 -179 208 -233 33 -26
163 -97 198 -108 14 -4 43 -16 65 -25 42 -18 206 -66 216 -63 3 1 46 -5 95
-12 114 -19 294 -19 409 0 49 8 91 13 92 11 2 -2 34 5 71 16 37 11 83 23 102
28 53 12 267 103 280 119 3 3 27 17 53 31 27 14 60 35 73 48 14 12 27 22 30
22 8 0 77 63 142 130 58 59 132 158 132 176 0 4 6 15 14 23 30 36 74 178 87
284 11 94 11 123 -3 225 -25 176 -84 287 -224 423 -82 79 -246 209 -264 209
-5 0 -10 4 -10 8 0 4 -25 23 -56 42 -31 19 -62 39 -68 45 -6 6 -45 33 -86 59
-41 27 -77 52 -80 56 -3 3 -39 31 -80 62 -94 69 -215 193 -256 262 -102 172
-40 418 135 533 31 20 58 40 61 43 11 15 127 61 189 76 80 19 193 21 242 5 20
-6 46 -13 57 -16 31 -6 89 -54 115 -95 17 -27 22 -50 21 -102 0 -61 -4 -72
-38 -123 -22 -30 -52 -63 -67 -72 -16 -10 -29 -20 -29 -24 0 -4 -15 -13 -32
-20 -32 -13 -38 -15 -58 -18 -5 0 -17 -12 -25 -25 -21 -31 -9 -56 46 -96 64
-46 138 -63 249 -57 122 7 133 9 209 42 89 37 107 50 177 120 100 101 135 229
99 358 -77 276 -377 393 -940 366z"/>
<path d="M8311 4332 c-91 -46 -231 -183 -337 -329 -41 -56 -74 -104 -74 -108
0 -3 -13 -25 -29 -48 -66 -97 -232 -425 -287 -567 -9 -25 -21 -49 -26 -54 -4
-6 -8 -17 -8 -25 0 -9 -7 -29 -15 -45 -9 -17 -24 -55 -35 -85 -63 -184 -79
-235 -103 -316 -14 -49 -35 -122 -46 -160 -12 -39 -21 -80 -21 -92 0 -28 -47
-167 -77 -226 -38 -75 -87 -147 -142 -207 -28 -30 -51 -58 -51 -62 0 -5 -6 -8
-13 -8 -6 0 -24 -12 -38 -28 -30 -31 -168 -102 -199 -102 -29 0 -76 56 -100
117 l-20 53 26 97 c49 191 102 331 185 491 58 111 59 114 59 195 0 74 -3 88
-29 128 -70 111 -199 129 -300 43 -88 -75 -197 -274 -269 -489 -115 -345 -130
-681 -37 -816 36 -51 146 -136 189 -145 107 -24 201 -11 294 38 100 53 92 47
278 216 l112 101 6 -97 c3 -53 8 -176 11 -272 8 -261 25 -468 41 -530 35 -125
113 -270 193 -353 71 -75 230 -147 326 -147 53 0 159 32 221 66 78 44 137 96
194 173 51 68 70 76 70 30 0 -54 59 -158 131 -230 84 -85 180 -133 297 -151
45 -7 82 -15 82 -19 0 -3 19 -3 43 2 23 4 76 14 117 20 97 16 268 80 290 109
3 4 25 19 49 35 96 59 216 196 274 311 87 172 162 514 172 786 11 287 27 349
160 618 121 243 149 316 176 457 20 106 -14 200 -91 248 -65 41 -126 44 -202
8 -35 -16 -77 -44 -94 -61 -48 -48 -105 -139 -142 -227 -18 -44 -38 -89 -43
-100 -34 -77 -103 -353 -113 -457 -10 -99 -64 -186 -138 -224 -18 -9 -40 -22
-48 -29 -24 -20 -89 -28 -120 -15 -44 18 -103 115 -108 176 -6 69 18 180 70
324 22 62 26 71 98 223 90 190 107 274 71 353 -22 48 -87 106 -136 122 -42 12
-132 -9 -142 -34 -3 -7 -11 -14 -17 -14 -17 0 -125 -114 -223 -235 -83 -103
-167 -188 -238 -240 -22 -17 -42 -32 -45 -35 -19 -19 -183 -106 -227 -120 -60
-19 -107 2 -221 97 l-92 78 203 205 c237 239 320 331 409 455 215 299 338 577
338 760 -1 150 -74 297 -183 367 -47 30 -58 33 -142 34 -88 2 -95 1 -164 -34z
m183 -554 c9 -35 7 -78 -5 -117 -13 -39 -94 -211 -120 -251 -158 -249 -268
-396 -379 -507 -82 -82 -100 -95 -100 -70 0 15 54 171 74 212 8 17 30 62 48
100 41 86 116 220 186 334 75 122 193 277 235 306 31 21 54 19 61 -7z m25
-1609 c-12 -191 -5 -322 22 -395 24 -65 77 -144 95 -144 8 0 14 -4 14 -9 0 -5
26 -24 58 -41 130 -71 304 -56 485 41 20 11 37 17 37 13 0 -3 11 1 25 10 41
27 48 21 41 -31 -3 -27 -10 -93 -16 -148 -14 -150 -81 -469 -110 -524 -5 -9
-22 -45 -38 -81 -69 -154 -174 -250 -275 -250 -18 0 -56 12 -84 26 -58 28 -88
76 -99 156 -13 91 8 129 143 269 162 169 184 213 121 245 -49 25 -170 19 -271
-13 -93 -30 -192 -82 -224 -118 -12 -14 -26 -25 -31 -25 -5 0 -19 -11 -32 -25
-13 -14 -27 -25 -30 -25 -4 0 -10 129 -13 288 -6 318 -14 371 -91 590 -47 135
-46 145 7 178 23 15 44 31 45 35 2 5 7 9 11 9 5 0 43 24 86 53 117 79 129 86
132 83 1 -1 -2 -76 -8 -167z m-739 -2 c168 -86 234 -196 265 -447 30 -232 11
-456 -47 -570 -43 -84 -106 -135 -158 -126 -47 7 -110 75 -141 151 -23 59 -24
66 -27 448 -3 395 3 497 33 543 19 29 19 29 75 1z"/>
<path d="M6952 3794 c-170 -85 -249 -256 -172 -377 60 -95 166 -138 285 -116
68 13 135 37 135 50 0 5 6 9 13 9 18 0 90 78 107 115 36 84 30 170 -20 248
-39 63 -129 107 -215 107 -51 0 -75 -6 -133 -36z"/>
</g>
</svg>
